<?xml version="1.0" encoding="utf-8"?>
<!-- Generator: Adobe Illustrator 16.0.0, SVG Export Plug-In . SVG Version: 6.00 Build 0)  -->
<!DOCTYPE svg PUBLIC "-//W3C//DTD SVG 1.1//EN" "http://www.w3.org/Graphics/SVG/1.1/DTD/svg11.dtd">
<svg version="1.1" id="Calque_1" xmlns="http://www.w3.org/2000/svg" xmlns:xlink="http://www.w3.org/1999/xlink" x="0px" y="0px"
	 width="1280px" height="800px" viewBox="0 0 1280 800" enable-background="new 0 0 1280 800" xml:space="preserve">
<rect fill="#FFFFFF" width="1280" height="800"/>
<path opacity="0.9" fill="#33495C" d="M20.309,38.913c9.963-4.224,26.837-0.241,36.02,5.065c11.518,6.656,16.781,8.927,29.228,6.938
	c11.04-1.768,25.259,6.337,33.712,11.431c5.22,3.142,10.056,6.509,15.205,9.545c5.431,3.203,12.121,4.913,17.283,8.083
	c5.605,3.443,8.935,8.641,15.364,10.888c7.206,2.519,15.663,0.546,23.283,1.301c8.965,0.889,18.043,1.419,27.048,0.899
	c8.31-0.475,14.083,1.987,22.162,2.461c13.509,0.796,70.486-26.243,73.939,1.136c0.475,3.796-2.619,17.39-5.211,20.303
	c-2.966,3.334-14.926,6.848-18.802,7.298c-5.586,0.648-14.259-2.619-20.234-3.744c-9.479-1.795-14.174-0.135-23.217,3.874
	c-7.792,3.462-16.39,9.204-24.386,6.788c-10.793-3.257-14.643-4.953-25.148,1.314c-8.026,4.788-16.585,2.121-25.292,6.355
	c-8.48,4.12-14.97-0.068-22.913,3.343c-9.939,4.268-18.598,14.552-31.159,12.089c-2.308-5.049-11.007-4.095-15.882-3.452
	c-7.044,0.922-11.185,3.312-16.315,6.786c-12.871,8.717-20.564-0.597-34.684,0.546c-10.336,0.837-31.944,10.4-37.481-2.268
	c-1.807-4.137-1.542-13.304-0.808-18.02c1.239-8.021,3.906-7.797,11.286-8.212c13.341-0.751,21.136-15.968,34.5-11.25
	c6.033,2.129,8.472,6.471,15.024,5.272c7.2-1.318,11.805-6.807,19.478-5.436c5.543,0.99,11.916,6.946,18,5.407
	c7.245-1.831,7.873-10.148,0.74-12.761c-6.036-2.21-14.114,1.316-20.408,0.768c-6.163-0.534-10.719-2.343-17.082-2.251
	c-4.604,0.068-10.366,2.518-14.42,2.085c-4.739-0.51-7.551-3.753-11.815-5.104c-4.385-1.392-10.147-0.832-14.468-0.183
	c-2.894,0.433-9.522,1.284-12.544,2.528c-14.75-7.585-6.817-30.042-0.584-34.406c2.92-2.047,13.966,1.288,17.828,2.247
	c5.587,1.392,9.965,6.092,15.167,7.163c5.211,1.072,13.5-2.236,12.597-8.83c-0.809-5.893-9.44-7.197-14.258-6.751
	c-7.063,0.657-10.41,1.635-17.105,0.607c-4.307-0.666-11.329,0.126-15.148-3.605C15.569,61.994,9.073,43.677,20.309,38.913z"/>
<path opacity="0.9" fill="#33495C" d="M1099.17,257.495c-6.199-1.222-13.895-0.323-19.611,1.662
	c-5.467,1.904-13.695,6.718-19.046,2.034c-5.603-4.906-1.873-11.518-12.077-12.665c-12.66-1.42-27.885,11.939-39.428,2.353
	c-3.383-2.812-4.264-4.921-8.563-6.98c-5.753-2.75-6.722-2.452-12.7-1.588c-10.252,1.485-23.434,3.449-33.65,1.999
	c-12.277-1.737-20.915-11.699-27.44-21.42c-14.044-20.936,5.593-22.892,23.979-22.84c16.938,0.048,10.126-8.789,21.665-14.694
	c7.808-3.996,20.042,5.357,27.435,6.704c25.489,4.648,37.832-29.598,62.771-30.844c5.494-0.274,8.321,3.317,13.142,4.88
	c6.223,2.016,11.63-1.221,17.26-3.768c7.681-3.474,17.506-9.179,26.302-7.093c11.115,2.637,11.355,14.456,18.02,21.552
	c7.059,7.521,20.129,6.736,29.169,3.855c4.45-1.418,7.135-4.67,12.032-4.569c4.734,0.1,8.538,2.954,12.574,5.153
	c5.389,2.938,9.99,7.437,15.809,9.59c5.062,1.876,10.969,2.069,16.256,3.329c7.442,1.771,15.734,4.133,23.457,3.278
	c7.428-0.821,14.41-3.267,21.25,1.779c8.405,6.201,6.389,17.766,1.233,24.629c-9.858,0.545-18.745-1.181-28.32-2.09
	c-4.25-0.4-10.827-2.775-14.874-2.334c-5.119,0.562-8.493,4.444-13.447,6.078c-12.332,4.069-13.189-1.349-21.896-7.771
	c-8.501-6.272-18.131-8.738-28.596-9.67c-8.043-0.714-12.797,5.82-20.068,7.109c-8.03,1.428-10.622-6.784-15.76-11.674
	c-4.197-4.003-6.669-6.309-12.699-6.854c-4.279-0.384-7.705,0.315-10.965,2.272c-5.473,3.283-14.105,11.1-20.582,9.823
	c-6.67-1.315-11.973-5.264-19.139-5.37c-5.714-0.083-16.396,2.942-17.227,9.726c-0.776,6.397,4.68,8.121,9.54,7.955
	c6.354-0.221,13.269-1.065,19.597-1.506c3.998-0.279,7.402-2.892,11.327-2.915c3.342-0.023,6.681,2.343,9.744,3.425
	c7.176,2.532,11.776,7.409,15.434,14.812c2.139,4.33,1.877,5.051,6.241,6.866c3.999,1.668,8.384,2.156,12.595,1.314
	c15.944-3.193,51.313-15.729,50.8,12.977c-0.259,14.357-16.354,5.827-24.547,3.979c-11.6-2.612-22.022,3.856-32.117,7.618
	c-10.057,3.751-14.674-7.391-23.264-9.73C1100.255,257.726,1099.719,257.602,1099.17,257.495z"/>
<path opacity="0.9" fill="#33495C" d="M146.337,303.685c6.591-1.25,10.977-2.062,18.125-1.353c2.471,0.247,5.08-0.376,7.54-0.013
	c2.406,0.356,5.175,2.388,7.391,2.39c7.817,0.003,18.329-10.528,26.522-13.252c9.955-3.303,19.414-4.383,30.208-2.825
	c5.276,0.762,8.988,2.45,14.431,1.709c5.259-0.722,10.328-2.406,15.762-3.753c4.914-1.22,9.148-1.873,14.446-1.873
	c5.875,0,8.711,1.743,13.831,3.16c10.615,2.936,19.135-1.321,29.06-3.02c10.74-1.839,19.478,3.768,30.041,3.63
	c11.032-0.14,21.631-1.47,32.697-2.021c6.166-0.308,12.928,0.853,17.283,5.479c4.514,4.802,6.711,13.687,14.143,15.405
	c9.818,2.267,18.887-6.93,28.246,0.853c7.336,6.104,5.171,18.237-3.712,21.658c-4.596,1.769-11.442,1.711-16.37,0.276
	c-5.315-1.542-9.998-6.755-15.738-7.604c-11.483-1.699-19.138,8.544-30.771,8.078c-8.584-0.344-20.916-12.396-28.445-8.19
	c-1.829,1.022-2.836,4.275-4.863,5.096c-2,0.802-7.259,0.313-9.444-0.013c-4.797-0.723-8.906-3.299-13.345-4.296
	c-9.801-2.2-17.299,0.198-25.652,5.625c-2.133,1.396-10.188,6.634-10.068,8.714c0.386,6.626,8.662,3.166,11.208,1.869
	c3.963-2.017,7.811-5.516,12.223-5.167c4.71,0.372,8.917,3.754,13.69,4.533c4.866,0.797,10.59,1.12,15.731,0.63
	c5.649-0.54,11.242-3.999,16.993-2.057c3.737,1.268,6.706,5.297,10.639,6.458c5.359,1.581,10.438,0.08,15.243-1.117
	c12.646-3.147,18.734-0.882,29.533,4.769c9.079,4.747,15.944,2.17,25.177-1.608c2.211-0.905,4.547-2.136,6.873-2.826
	c5.308-1.584,4.767,0.243,8.034,1.305c6.945,2.259,8.106-0.205,14.443-2.56c5.783-2.149,11.657,0.518,17.791,0.78
	c6.904,0.297,12.855,1.175,19.35,3.16c5.082,1.56,8.183,4.56,12.606,6.879c3.437,1.808,8.948,2.63,10.679,6.902
	c4.619,11.352-17.427,18.506-24.58,17.774c-10.849-1.103-21.637,0.67-32.658,1.75c-12.348,1.203-22.614-5.42-34.545-2.497
	c-6.155,1.503-12.202,6.51-18.261,7.537c-6.562,1.111-13.222-3.622-18.544-7.101c-6.415-4.193-8.318-5.825-15.409-3.787
	c-8.853,2.552-10.755,1.848-19.348-0.577c-11.052-3.123-20.86,0.778-31.574,2.511c-5.462,0.883-9.655,1.983-15.085-0.03
	c-4.532-1.681-8.167-4.648-12.576-6.292c-10.647-3.951-21.227,2.306-32.156,2.057c-6.977-0.158-8.589-4.679-13.867-6.773
	c-5.062-2.009-11.879-2.642-16.849-0.751c-5.265,2.007-9.207,8.231-15.088,6.321c-6.386-2.08-6.472-7.496-13.831-8.223
	c-5.853-0.579-9.895,1.059-14.299-2.688c-3.431-2.916-5.637-8.019-10.989-9.13c-5.869-1.219-12.771,3.55-18.724,4.241
	c-8.229,0.949-12.606-2.927-20.116-4.241c-7.011-1.225-14.596,4.544-19.644-3.257c-5.238-8.11-1.008-22.37,6.445-27.047
	C136.169,319.293,138.25,309.327,146.337,303.685z"/>
<path opacity="0.9" fill="#33495C" d="M814.01,495.515c4.739,6.542,14.031-1.178,19.674-2.648c7.124-1.86,13.407,1.919,20.994,1.125
	c4.521-0.476,8.217-3.552,13.001-3.509c4.784,0.045,5.294,2.36,9.51,3.461c7.351,1.916,13.331,0.184,20.134-1.54
	c10.135-2.57,10.631,1.548,18.871,4.159c6.854,2.174,15.299-1.423,20.802-4.304c7.808-4.089,15.293-10.463,23.407-11.505
	c7.965-1.021,16.121,0.628,24.074-0.048c8.193-0.693,17.222,0.69,25.327-0.63c6.949-1.129,13.294-6.075,20.601-6.087
	c9.353-0.013,16.311,7.071,25.262,8.057c8.601,0.947,13.926-7.305,22.049-8.405c8.327-1.121,15.852,4.346,23.725,6.184
	c18.471,4.317,48.362-13.115,53.203,15.055c4.596,26.762-18.043,39.371-38.473,23.554c-9.789-7.576-7.75-1.388-16.423,1.34
	c-7.079,2.227-15.316-2.217-21.473-4.372c-9.253-3.239-13.782-3.471-23.114,0.824c-7.373,3.392-15.365,6.914-9.001,15.752
	c4.024-0.947,8.397-2.06,12.618-3.188c9.546-2.553,14.018,1.895,22.965,3.296c7.146,1.116,15.133-0.192,21.713-1.494
	c5.061-1.002,4.379-2.217,9.49-0.872c3.168,0.839,5.52,3.082,8.611,4.282c7.947,3.094,12.426,2.535,19.945,0.21
	c6.342-1.956,9.715-5.626,15.875,0.545c8.46,8.494,5.838,25.541-3.18,32.331c-9.344,7.036-23.738,6.282-34.674,5.167
	c-8.346-0.844-16.709-2.367-24.975-3.743c-9.751-1.623-13.735,1.699-22.578,2.341c-7.254,0.523-8.693-4.54-16.873-5.833
	c-9.666-1.521-19.705,2.873-28.862,0.864c-12.538-2.741-18.979-10.322-32.899-9.297c-20.64,1.524-32.17-1.877-50.248-10.854
	c-13.397-6.654-25.454-4.427-39.486-2.977c-15.794,1.628-25.587-5.603-39.117-12.621c-16.363-8.489-35.501-3.317-51.432-11.678
	c-6.812-3.581-9.518-11.384-5.891-18.612C807.162,499.844,808.701,493.771,814.01,495.515z"/>
<path opacity="0.9" fill="#33495C" d="M19.126,573.445c11.792-4.349,25.839,6.847,37.202,1.875
	c12.539-5.479,16.01-20.439,29.688-24.354c13.693-3.921,23.384,5.979,37.991,5.967c11.165-0.013,19.599-6.315,29.821-7.709
	c11.583-1.573,20.15,10.103,29.801,14.939c16.807,8.41,32.18-0.361,49.287-0.797c13.221-0.333,19.442,7.093,30.095,13.093
	c14.692,8.283,29.292,0.725,45.069,4.035c9.204,1.936,30.533,10.836,30.779,22.756c0.24,11.822-19.553,16.61-28.175,13.39
	c-6.316-2.364-10.343-8.79-17.4-9.396c-8.912-0.766-15.887,6.979-23.33,10.461c-16.765,7.852-26.486-6.254-38.369-16.299
	c-8.821-7.462-10.924-6.942-21.688-4.843c-12.849,2.506-24.708,2.095-33.641-6.003c-10.661-9.66-21.514-10.176-32.232-1.239
	c-9.712,8.104-17.623,7.048-29.928,3.969c-7.232-1.81-18.595-1.362-24.006,4.929c-6.24,7.26-2.165,12.585,5.84,13.217
	c16.476,1.301,31.387-9.609,47.184,2.329c11.539,8.713,12.878,19.153,29.594,19.966c14.605,0.712,28.176-6.224,42.109-5.876
	c10.896,0.268,22.651,12.029,9.914,19.893c-5.919,3.656-16.839,3.648-23.948,3.348c-2.88-0.122-5.759-1.436-9.042-0.72
	c-4.382,0.955-8.107,7.04-12.244,8.436c-5.266,1.775-15.926,0.316-20.809-1.738c-8.607-3.611-9.08-10.691-18.998-11.781
	c-2.486-0.269-7.575-0.803-9.929-0.02c-4.124,1.394-3.964,5.016-6.75,6.686c-5.369,3.223-12.688,1.504-17.382-2.328
	c-4.956-4.058-7.657-10.965-14.014-12.409c-6.631-1.511-11.061,2.845-17.161,4.582c-10.788,3.07-15.683,5.372-24.172-2.082
	c-6.991-6.14-11.561-7.174-21.246-7.641c-29.015-1.392-31.645-38.427-12.391-55.331L19.126,573.445z"/>
<path opacity="0.9" fill="#33495C" d="M1279.276,753.408c1.085-5.649,1.341-15.598-2.062-20.158
	c-3.143-4.217-6.624-3.797-11.283-5.086c-10.183-2.81-18.398-8.749-27.961-12.079c-5.031-1.755-9.611-1.759-15.209-2.051
	c-8.115-0.417-11.426-3.547-19.682-1.425c-6.725,1.731-10.465,1.197-16.924-1.481c-5.242-2.172-10.793-3.683-15.989-5.805
	c-7.888-3.223-10.784-8.307-20.392-8.29c-7.523,0.015-13.775,3.904-20.994,4.273c-12.883,0.659-24.377-10.081-37.519-5.683
	c-7.832,2.624-12.622,5.545-20.585,0.676c-5.086-3.108-6.748-8.461-13.709-8.991c-2.211-0.168-7.15,1.3-9.281,1.923
	c-6.143,1.781-13.508,7.079-19.872,7.03c-5.429-0.047-9.218-3.769-13.966-5.752c-7.627-3.18-12.275-0.335-19.549,1.441
	c-4.693,1.155-9.551,0.802-14.742-0.135c-11.824-2.136-20.499-16.381-32.371-9.512c-4.749,2.746-7.814,5.983-13.361,5.235
	c-5.026-0.68-9.863-3.956-15.152-4.473c-13.486-1.336-27.133-0.121-40.717-0.779c-10.419-0.51-14.6,0.53-24.242,5.358
	c-6.893,3.458-12.729,1.025-12.559,9.245c0.109,5.106,0.895,10.234,4.448,13.161c3.023,2.489,11.319,3.265,12.125,7.065
	c5.483,0.274,18.088-1.033,20.335,5.066c10.688,4.591,22.266,2.138,32.159-2.642c3.807-1.842,3.058-2.711,8.041-2.141
	c2.731,0.313,5.565,2.03,8.55,2.396c7.301,0.895,14.725-0.22,21.637-2.564c12.16-4.118,16.9,5.271,27.943,6.357
	c4.242,0.42,10.039-2.421,14.096-3.059c5.41-0.858,9.618,0.794,14.434,2.396c5.49,1.823,9.439,3.567,15.372,2.322
	c4.778-1.009,8.819-4.221,13.87-4.228c10.961-0.015,18.066,8.019,28.436,7.492c4.34-0.221,29.004-9.145,24.49,2.724
	c-0.209,0.542-7.226,5.541-8.266,6.192c-3.16,1.998-6.783,2.632-10.461,2.888c-7.172,0.499-14.354-1.289-21.381-2.449
	c-13.855-2.296-27.646,10.416-40.888,1.948c-4.946-3.17-7.349-8.921-13.911-8.159c-5.006,0.585-10.152,5.186-15.213,6.489
	c-6.65,1.716-14.127,2.211-20.262-1.411c-3.818-2.254-7.154-6.335-12.047-6.822c-4.195-0.42-12.307,1.716-15.732,3.347
	c-19.461,9.267,4.469,20.729,13.769,23.313c9.791,2.721,17.188,5.716,24.724,12.734c16.424,15.298,31.947,4.762,51.502,3.149
	c7.363-0.609,10.176,1.373,15.752,5.099c5.646,3.767,9.42,2.885,15.982,2.503c12.092-0.698,20.451-5.562,32.359-3.158
	c14.016,2.827,25.575-1.172,39.41-2.4c10.689-0.946,21.582,2.881,32.357,1.767c10.938-1.136,20.061-4.697,29.895-9.494
	c5.75-2.809,7.717-6.057,14.57-5.619c5.627,0.359,9.59,0.143,15.259-0.128c10.745-0.509,19.993,3.162,30.479,3.174
	c9.539,0.013,20.699-5.068,29.207-1.902C1274.197,762.3,1277.838,760.9,1279.276,753.408z"/>
</svg>
